<svg width="131" height="38" viewBox="0 0 131 38" fill="none" xmlns="http://www.w3.org/2000/svg">
<mask id="path-1-outside-1_8_198" maskUnits="userSpaceOnUse" x="-2" y="-1" width="134" height="40" fill="black">
<rect fill="white" x="-2" y="-1" width="134" height="40"/>
<path d="M9.6179 37H0.171875L12.4411 0.636363H24.142L36.4112 37H26.9652L18.4247 9.79829H18.1406L9.6179 37ZM8.35724 22.6889H28.1016V29.3651H8.35724V22.6889ZM40.3263 37V0.636363H49.1154V29.8622H64.2433V37H40.3263ZM68.7931 37V0.636363H77.5822V29.8622H92.71V37H68.7931ZM130.166 18.8182C130.166 22.8191 129.396 26.2105 127.857 28.9922C126.319 31.7739 124.235 33.8868 121.607 35.331C118.991 36.7751 116.056 37.4972 112.801 37.4972C109.534 37.4972 106.592 36.7692 103.976 35.3132C101.36 33.8572 99.2826 31.7443 97.7438 28.9744C96.2168 26.1927 95.4533 22.8073 95.4533 18.8182C95.4533 14.8172 96.2168 11.4259 97.7438 8.64418C99.2826 5.86245 101.36 3.74953 103.976 2.3054C106.592 0.861268 109.534 0.139203 112.801 0.139203C116.056 0.139203 118.991 0.861268 121.607 2.3054C124.235 3.74953 126.319 5.86245 127.857 8.64418C129.396 11.4259 130.166 14.8172 130.166 18.8182ZM121.181 18.8182C121.181 16.4508 120.844 14.4503 120.169 12.8168C119.506 11.1832 118.548 9.94626 117.293 9.10582C116.05 8.26539 114.552 7.84517 112.801 7.84517C111.061 7.84517 109.563 8.26539 108.308 9.10582C107.054 9.94626 106.089 11.1832 105.414 12.8168C104.751 14.4503 104.42 16.4508 104.42 18.8182C104.42 21.1856 104.751 23.1861 105.414 24.8196C106.089 26.4531 107.054 27.6901 108.308 28.5305C109.563 29.371 111.061 29.7912 112.801 29.7912C114.552 29.7912 116.05 29.371 117.293 28.5305C118.548 27.6901 119.506 26.4531 120.169 24.8196C120.844 23.1861 121.181 21.1856 121.181 18.8182Z"/>
</mask>
<g filter="url(#filter0_i_8_198)">
<path d="M9.6179 37H0.171875L12.4411 0.636363H24.142L36.4112 37H26.9652L18.4247 9.79829H18.1406L9.6179 37ZM8.35724 22.6889H28.1016V29.3651H8.35724V22.6889ZM40.3263 37V0.636363H49.1154V29.8622H64.2433V37H40.3263ZM68.7931 37V0.636363H77.5822V29.8622H92.71V37H68.7931ZM130.166 18.8182C130.166 22.8191 129.396 26.2105 127.857 28.9922C126.319 31.7739 124.235 33.8868 121.607 35.331C118.991 36.7751 116.056 37.4972 112.801 37.4972C109.534 37.4972 106.592 36.7692 103.976 35.3132C101.36 33.8572 99.2826 31.7443 97.7438 28.9744C96.2168 26.1927 95.4533 22.8073 95.4533 18.8182C95.4533 14.8172 96.2168 11.4259 97.7438 8.64418C99.2826 5.86245 101.36 3.74953 103.976 2.3054C106.592 0.861268 109.534 0.139203 112.801 0.139203C116.056 0.139203 118.991 0.861268 121.607 2.3054C124.235 3.74953 126.319 5.86245 127.857 8.64418C129.396 11.4259 130.166 14.8172 130.166 18.8182ZM121.181 18.8182C121.181 16.4508 120.844 14.4503 120.169 12.8168C119.506 11.1832 118.548 9.94626 117.293 9.10582C116.05 8.26539 114.552 7.84517 112.801 7.84517C111.061 7.84517 109.563 8.26539 108.308 9.10582C107.054 9.94626 106.089 11.1832 105.414 12.8168C104.751 14.4503 104.42 16.4508 104.42 18.8182C104.42 21.1856 104.751 23.1861 105.414 24.8196C106.089 26.4531 107.054 27.6901 108.308 28.5305C109.563 29.371 111.061 29.7912 112.801 29.7912C114.552 29.7912 116.05 29.371 117.293 28.5305C118.548 27.6901 119.506 26.4531 120.169 24.8196C120.844 23.1861 121.181 21.1856 121.181 18.8182Z" fill="#EB5050"/>
</g>
<path d="M9.6179 37V38H10.3525L10.5722 37.299L9.6179 37ZM0.171875 37L-0.775645 36.6803L-1.22091 38H0.171875V37ZM12.4411 0.636363V-0.363637H11.7231L11.4935 0.316667L12.4411 0.636363ZM24.142 0.636363L25.0896 0.316667L24.86 -0.363637H24.142V0.636363ZM36.4112 37V38H37.804L37.3587 36.6803L36.4112 37ZM26.9652 37L26.0111 37.2996L26.231 38H26.9652V37ZM18.4247 9.79829L19.3788 9.49874L19.1589 8.79829H18.4247V9.79829ZM18.1406 9.79829V8.79829H17.406L17.1864 9.49931L18.1406 9.79829ZM8.35724 22.6889V21.6889H7.35724V22.6889H8.35724ZM28.1016 22.6889H29.1016V21.6889H28.1016V22.6889ZM28.1016 29.3651V30.3651H29.1016V29.3651H28.1016ZM8.35724 29.3651H7.35724V30.3651H8.35724V29.3651ZM9.6179 36H0.171875V38H9.6179V36ZM1.1194 37.3197L13.3886 0.956058L11.4935 0.316667L-0.775645 36.6803L1.1194 37.3197ZM12.4411 1.63636H24.142V-0.363637H12.4411V1.63636ZM23.1945 0.956058L35.4637 37.3197L37.3587 36.6803L25.0896 0.316667L23.1945 0.956058ZM36.4112 36H26.9652V38H36.4112V36ZM27.9193 36.7004L19.3788 9.49874L17.4706 10.0978L26.0111 37.2996L27.9193 36.7004ZM18.4247 8.79829H18.1406V10.7983H18.4247V8.79829ZM17.1864 9.49931L8.66364 36.701L10.5722 37.299L19.0949 10.0973L17.1864 9.49931ZM8.35724 23.6889H28.1016V21.6889H8.35724V23.6889ZM27.1016 22.6889V29.3651H29.1016V22.6889H27.1016ZM28.1016 28.3651H8.35724V30.3651H28.1016V28.3651ZM9.35724 29.3651V22.6889H7.35724V29.3651H9.35724ZM40.3263 37H39.3263V38H40.3263V37ZM40.3263 0.636363V-0.363637H39.3263V0.636363H40.3263ZM49.1154 0.636363H50.1154V-0.363637H49.1154V0.636363ZM49.1154 29.8622H48.1154V30.8622H49.1154V29.8622ZM64.2433 29.8622H65.2433V28.8622H64.2433V29.8622ZM64.2433 37V38H65.2433V37H64.2433ZM41.3263 37V0.636363H39.3263V37H41.3263ZM40.3263 1.63636H49.1154V-0.363637H40.3263V1.63636ZM48.1154 0.636363V29.8622H50.1154V0.636363H48.1154ZM49.1154 30.8622H64.2433V28.8622H49.1154V30.8622ZM63.2433 29.8622V37H65.2433V29.8622H63.2433ZM64.2433 36H40.3263V38H64.2433V36ZM68.7931 37H67.7931V38H68.7931V37ZM68.7931 0.636363V-0.363637H67.7931V0.636363H68.7931ZM77.5822 0.636363H78.5822V-0.363637H77.5822V0.636363ZM77.5822 29.8622H76.5822V30.8622H77.5822V29.8622ZM92.71 29.8622H93.71V28.8622H92.71V29.8622ZM92.71 37V38H93.71V37H92.71ZM69.7931 37V0.636363H67.7931V37H69.7931ZM68.7931 1.63636H77.5822V-0.363637H68.7931V1.63636ZM76.5822 0.636363V29.8622H78.5822V0.636363H76.5822ZM77.5822 30.8622H92.71V28.8622H77.5822V30.8622ZM91.71 29.8622V37H93.71V29.8622H91.71ZM92.71 36H68.7931V38H92.71V36ZM127.857 28.9922L126.982 28.5081L126.982 28.5081L127.857 28.9922ZM121.607 35.331L121.126 34.4546L121.124 34.4555L121.607 35.331ZM103.976 35.3132L104.462 34.4394L104.462 34.4394L103.976 35.3132ZM97.7438 28.9744L96.8672 29.4556L96.8696 29.4601L97.7438 28.9744ZM97.7438 8.64418L96.8687 8.16011L96.8672 8.16297L97.7438 8.64418ZM103.976 2.3054L104.459 3.18086L104.459 3.18086L103.976 2.3054ZM121.607 2.3054L121.124 3.18086L121.126 3.18178L121.607 2.3054ZM127.857 8.64418L126.982 9.12824L126.982 9.12824L127.857 8.64418ZM120.169 12.8168L119.243 13.1928L119.245 13.1985L120.169 12.8168ZM117.293 9.10582L116.733 9.93422L116.736 9.93666L117.293 9.10582ZM108.308 9.10582L108.865 9.93666L108.865 9.93666L108.308 9.10582ZM105.414 12.8168L104.49 12.435L104.488 12.4407L105.414 12.8168ZM105.414 24.8196L104.488 25.1956L104.49 25.2014L105.414 24.8196ZM108.308 28.5305L108.865 27.6997L108.865 27.6997L108.308 28.5305ZM117.293 28.5305L116.736 27.6997L116.733 27.7021L117.293 28.5305ZM120.169 24.8196L119.245 24.4378L119.243 24.4436L120.169 24.8196ZM129.166 18.8182C129.166 22.6928 128.421 25.9081 126.982 28.5081L128.732 29.4762C130.372 26.5128 131.166 22.9455 131.166 18.8182H129.166ZM126.982 28.5081C125.529 31.1349 123.578 33.107 121.126 34.4546L122.089 36.2073C124.893 34.6667 127.108 32.4129 128.732 29.4762L126.982 28.5081ZM121.124 34.4555C118.669 35.8108 115.902 36.4972 112.801 36.4972V38.4972C116.209 38.4972 119.314 37.7394 122.091 36.2064L121.124 34.4555ZM112.801 36.4972C109.688 36.4972 106.916 35.8052 104.462 34.4394L103.49 36.187C106.268 37.7332 109.379 38.4972 112.801 38.4972V36.4972ZM104.462 34.4394C102.019 33.0795 100.072 31.1056 98.6179 28.4888L96.8696 29.4601C98.4935 32.383 100.701 34.635 103.49 36.187L104.462 34.4394ZM98.6204 28.4932C97.1926 25.8922 96.4533 22.6815 96.4533 18.8182H94.4533C94.4533 22.933 95.241 26.4932 96.8672 29.4556L98.6204 28.4932ZM96.4533 18.8182C96.4533 14.9424 97.1928 11.726 98.6204 9.12538L96.8672 8.16297C95.2408 11.1258 94.4533 14.6921 94.4533 18.8182H96.4533ZM98.6188 9.12824C100.073 6.50026 102.019 4.52811 104.459 3.18086L103.493 1.42993C100.701 2.97094 98.4926 5.22464 96.8688 8.16011L98.6188 9.12824ZM104.459 3.18086C106.914 1.8259 109.686 1.1392 112.801 1.1392V-0.860797C109.381 -0.860797 106.27 -0.10336 103.493 1.42993L104.459 3.18086ZM112.801 1.1392C115.902 1.1392 118.669 1.8256 121.124 3.18086L122.091 1.42993C119.314 -0.103063 116.209 -0.860797 112.801 -0.860797V1.1392ZM121.126 3.18178C123.578 4.52936 125.529 6.50141 126.982 9.12824L128.732 8.16011C127.108 5.22349 124.893 2.96969 122.089 1.42901L121.126 3.18178ZM126.982 9.12824C128.421 11.7282 129.166 14.9436 129.166 18.8182H131.166C131.166 14.6909 130.372 11.1236 128.732 8.16011L126.982 9.12824ZM122.181 18.8182C122.181 16.3617 121.832 14.2231 121.093 12.435L119.245 13.1985C119.856 14.6774 120.181 16.5398 120.181 18.8182H122.181ZM121.096 12.4407C120.371 10.6538 119.296 9.2443 117.849 8.27498L116.736 9.93666C117.799 10.6482 118.642 11.7127 119.243 13.1928L121.096 12.4407ZM117.853 8.27743C116.418 7.30737 114.718 6.84517 112.801 6.84517V8.84517C114.387 8.84517 115.681 9.2234 116.733 9.93421L117.853 8.27743ZM112.801 6.84517C110.893 6.84517 109.195 7.30819 107.752 8.27498L108.865 9.93666C109.931 9.22259 111.228 8.84517 112.801 8.84517V6.84517ZM107.752 8.27498C106.306 9.24318 105.227 10.6506 104.49 12.435L106.339 13.1985C106.951 11.7159 107.801 10.6493 108.865 9.93666L107.752 8.27498ZM104.488 12.4407C103.763 14.227 103.42 16.3635 103.42 18.8182H105.42C105.42 16.538 105.74 14.6735 106.341 13.1928L104.488 12.4407ZM103.42 18.8182C103.42 21.2729 103.763 23.4093 104.488 25.1956L106.341 24.4436C105.74 22.9628 105.42 21.0983 105.42 18.8182H103.42ZM104.49 25.2014C105.227 26.9858 106.306 28.3932 107.752 29.3614L108.865 27.6997C107.801 26.987 106.951 25.9204 106.339 24.4378L104.49 25.2014ZM107.752 29.3614C109.195 30.3282 110.893 30.7912 112.801 30.7912V28.7912C111.228 28.7912 109.931 28.4138 108.865 27.6997L107.752 29.3614ZM112.801 30.7912C114.718 30.7912 116.418 30.329 117.853 29.3589L116.733 27.7021C115.681 28.413 114.387 28.7912 112.801 28.7912V30.7912ZM117.849 29.3614C119.296 28.3921 120.371 26.9826 121.096 25.1956L119.243 24.4436C118.642 25.9237 117.799 26.9881 116.736 27.6997L117.849 29.3614ZM121.093 25.2014C121.832 23.4132 122.181 21.2746 122.181 18.8182H120.181C120.181 21.0966 119.856 22.9589 119.245 24.4378L121.093 25.2014Z" fill="black" mask="url(#path-1-outside-1_8_198)"/>
<defs>
<filter id="filter0_i_8_198" x="0.171875" y="0.13916" width="129.994" height="41.358" filterUnits="userSpaceOnUse" color-interpolation-filters="sRGB">
<feFlood flood-opacity="0" result="BackgroundImageFix"/>
<feBlend mode="normal" in="SourceGraphic" in2="BackgroundImageFix" result="shape"/>
<feColorMatrix in="SourceAlpha" type="matrix" values="0 0 0 0 0 0 0 0 0 0 0 0 0 0 0 0 0 0 127 0" result="hardAlpha"/>
<feOffset dy="4"/>
<feGaussianBlur stdDeviation="2"/>
<feComposite in2="hardAlpha" operator="arithmetic" k2="-1" k3="1"/>
<feColorMatrix type="matrix" values="0 0 0 0 0 0 0 0 0 0 0 0 0 0 0 0 0 0 0.25 0"/>
<feBlend mode="normal" in2="shape" result="effect1_innerShadow_8_198"/>
</filter>
</defs>
</svg>
