<svg width="674" height="756" viewBox="0 0 674 756" fill="none" xmlns="http://www.w3.org/2000/svg">
<rect x="0.5" y="0.5" width="673" height="755" rx="4.5" stroke="#9747FF" stroke-dasharray="10 5"/>
<path d="M229 20H445V368H229V20Z" fill="#FFD732"/>
<path d="M324.546 161.273V194H316.652V168.656H316.46L309.141 173.13V166.29L317.211 161.273H324.546Z" fill="black"/>
<path d="M353.274 176.949L346.099 177.141C346.025 176.63 345.822 176.177 345.492 175.783C345.162 175.378 344.73 175.064 344.198 174.84C343.676 174.605 343.068 174.488 342.376 174.488C341.47 174.488 340.698 174.669 340.059 175.032C339.43 175.394 339.121 175.884 339.132 176.502C339.121 176.981 339.313 177.397 339.707 177.748C340.112 178.1 340.831 178.382 341.865 178.595L346.595 179.49C349.045 179.959 350.867 180.737 352.06 181.823C353.264 182.91 353.871 184.348 353.882 186.138C353.871 187.821 353.37 189.286 352.379 190.532C351.399 191.779 350.057 192.748 348.352 193.441C346.648 194.123 344.698 194.463 342.504 194.463C338.999 194.463 336.234 193.744 334.21 192.306C332.197 190.857 331.046 188.918 330.758 186.489L338.477 186.298C338.647 187.192 339.089 187.874 339.803 188.343C340.517 188.812 341.428 189.046 342.536 189.046C343.537 189.046 344.352 188.86 344.981 188.487C345.609 188.114 345.929 187.619 345.94 187.001C345.929 186.447 345.684 186.005 345.204 185.674C344.725 185.333 343.974 185.067 342.951 184.875L338.669 184.06C336.208 183.613 334.375 182.787 333.171 181.583C331.968 180.369 331.371 178.824 331.382 176.949C331.371 175.309 331.808 173.908 332.692 172.746C333.576 171.575 334.833 170.68 336.463 170.062C338.093 169.444 340.016 169.135 342.232 169.135C345.556 169.135 348.177 169.833 350.094 171.228C352.012 172.613 353.072 174.52 353.274 176.949Z" fill="black"/>
<path d="M371.584 169.455V175.207H356.099V169.455H371.584ZM359.343 163.574H367.157V186.282C367.157 186.761 367.232 187.15 367.381 187.448C367.541 187.736 367.77 187.944 368.068 188.071C368.366 188.189 368.723 188.247 369.139 188.247C369.437 188.247 369.751 188.221 370.081 188.167C370.422 188.103 370.678 188.05 370.848 188.007L372.031 193.648C371.658 193.755 371.131 193.888 370.449 194.048C369.778 194.208 368.973 194.309 368.036 194.352C366.204 194.437 364.632 194.224 363.322 193.712C362.022 193.19 361.026 192.381 360.334 191.283C359.652 190.186 359.322 188.806 359.343 187.145V163.574Z" fill="black"/>
<path d="M20 187H229V368H20V187Z" fill="#D9D9D9"/>
<path d="M20 127H229V368H20V127Z" fill="#EB5050"/>
<path d="M445 187H654V368H445V187Z" fill="#B4E5FF"/>
<path d="M84.413 263V257.311L96.3501 246.86C97.245 246.05 98.0067 245.31 98.6353 244.639C99.2638 243.957 99.7432 243.275 100.073 242.593C100.404 241.901 100.569 241.15 100.569 240.34C100.569 239.435 100.372 238.662 99.9776 238.023C99.5834 237.373 99.0401 236.873 98.3476 236.521C97.6552 236.169 96.8615 235.994 95.9666 235.994C95.0611 235.994 94.2674 236.18 93.5856 236.553C92.9038 236.915 92.3711 237.443 91.9876 238.135C91.6147 238.827 91.4283 239.669 91.4283 240.66H83.9336C83.9336 238.433 84.4343 236.51 85.4357 234.891C86.4371 233.272 87.8434 232.025 89.6545 231.152C91.4762 230.267 93.5909 229.825 95.9986 229.825C98.4808 229.825 100.638 230.241 102.471 231.072C104.303 231.903 105.72 233.064 106.721 234.555C107.733 236.036 108.239 237.757 108.239 239.717C108.239 240.963 107.989 242.199 107.488 243.424C106.988 244.65 106.087 246.003 104.788 247.483C103.499 248.964 101.666 250.738 99.2905 252.805L95.3753 256.416V256.624H108.639V263H84.413Z" fill="white"/>
<path d="M120.987 249.001V263H113.173V238.455H120.604V242.961H120.876C121.419 241.459 122.346 240.282 123.656 239.429C124.967 238.566 126.527 238.135 128.338 238.135C130.064 238.135 131.561 238.524 132.829 239.302C134.107 240.069 135.098 241.145 135.801 242.53C136.515 243.904 136.866 245.512 136.856 247.355V263H129.041V248.89C129.052 247.526 128.706 246.461 128.003 245.694C127.31 244.927 126.346 244.543 125.11 244.543C124.29 244.543 123.566 244.724 122.937 245.086C122.319 245.438 121.84 245.944 121.499 246.604C121.169 247.265 120.998 248.064 120.987 249.001Z" fill="white"/>
<path d="M150.659 263.352C148.847 263.352 147.202 262.883 145.721 261.945C144.24 261.008 143.057 259.602 142.173 257.727C141.289 255.852 140.847 253.524 140.847 250.743C140.847 247.856 141.305 245.48 142.221 243.616C143.137 241.752 144.336 240.372 145.817 239.477C147.308 238.582 148.911 238.135 150.627 238.135C151.916 238.135 153.018 238.359 153.934 238.806C154.851 239.243 155.607 239.808 156.204 240.5C156.8 241.192 157.253 241.912 157.562 242.657H157.722V230.273H165.536V263H157.802V259.021H157.562C157.232 259.777 156.763 260.486 156.156 261.146C155.548 261.807 154.787 262.34 153.871 262.744C152.965 263.149 151.894 263.352 150.659 263.352ZM153.375 257.263C154.323 257.263 155.133 256.997 155.804 256.464C156.475 255.921 156.992 255.159 157.354 254.179C157.716 253.199 157.898 252.048 157.898 250.727C157.898 249.385 157.716 248.229 157.354 247.26C157.003 246.29 156.486 245.544 155.804 245.022C155.133 244.5 154.323 244.239 153.375 244.239C152.406 244.239 151.585 244.506 150.914 245.038C150.243 245.571 149.732 246.322 149.38 247.292C149.039 248.261 148.869 249.406 148.869 250.727C148.869 252.048 149.045 253.199 149.396 254.179C149.748 255.159 150.254 255.921 150.914 256.464C151.585 256.997 152.406 257.263 153.375 257.263Z" fill="white"/>
<path d="M521.861 293.447C519.369 293.447 517.158 293.021 515.23 292.169C513.312 291.306 511.799 290.118 510.691 288.606C509.583 287.093 509.019 285.351 508.997 283.38H516.956C516.987 284.094 517.217 284.728 517.643 285.282C518.069 285.825 518.649 286.251 519.385 286.56C520.12 286.869 520.956 287.023 521.893 287.023C522.831 287.023 523.657 286.858 524.37 286.528C525.095 286.187 525.659 285.724 526.064 285.138C526.469 284.541 526.666 283.859 526.655 283.092C526.666 282.325 526.448 281.643 526 281.047C525.553 280.45 524.919 279.987 524.099 279.657C523.289 279.326 522.33 279.161 521.222 279.161H518.042V273.536H521.222C522.192 273.536 523.044 273.376 523.779 273.057C524.525 272.737 525.105 272.29 525.521 271.715C525.936 271.129 526.139 270.457 526.128 269.701C526.139 268.966 525.963 268.321 525.601 267.767C525.249 267.203 524.754 266.766 524.115 266.457C523.486 266.148 522.756 265.994 521.925 265.994C521.052 265.994 520.258 266.148 519.544 266.457C518.841 266.766 518.282 267.203 517.866 267.767C517.451 268.332 517.233 268.987 517.211 269.733H509.653C509.674 267.783 510.217 266.068 511.283 264.587C512.348 263.096 513.797 261.929 515.629 261.088C517.472 260.246 519.571 259.825 521.925 259.825C524.269 259.825 526.331 260.235 528.11 261.056C529.889 261.876 531.274 262.995 532.265 264.412C533.255 265.818 533.751 267.411 533.751 269.19C533.761 271.033 533.159 272.551 531.945 273.744C530.741 274.937 529.191 275.672 527.295 275.949V276.205C529.83 276.503 531.742 277.324 533.032 278.666C534.331 280.008 534.976 281.686 534.965 283.7C534.965 285.596 534.406 287.279 533.287 288.749C532.179 290.209 530.635 291.359 528.653 292.201C526.682 293.032 524.418 293.447 521.861 293.447Z" fill="black"/>
<path d="M539.492 293V268.455H547.082V272.929H547.338C547.785 271.31 548.515 270.106 549.527 269.318C550.539 268.518 551.716 268.119 553.059 268.119C553.421 268.119 553.794 268.146 554.177 268.199C554.561 268.242 554.918 268.311 555.248 268.407V275.198C554.875 275.07 554.385 274.969 553.778 274.895C553.181 274.82 552.648 274.783 552.18 274.783C551.253 274.783 550.417 274.99 549.671 275.406C548.936 275.811 548.355 276.381 547.929 277.116C547.514 277.84 547.306 278.692 547.306 279.673V293H539.492Z" fill="black"/>
<path d="M566.122 293.352C564.311 293.352 562.665 292.883 561.185 291.945C559.704 291.008 558.521 289.602 557.637 287.727C556.753 285.852 556.311 283.524 556.311 280.743C556.311 277.856 556.769 275.48 557.685 273.616C558.601 271.752 559.8 270.372 561.28 269.477C562.772 268.582 564.375 268.135 566.09 268.135C567.379 268.135 568.482 268.359 569.398 268.806C570.315 269.243 571.071 269.808 571.667 270.5C572.264 271.193 572.717 271.912 573.026 272.657H573.186V260.273H581V293H573.265V289.021H573.026C572.695 289.777 572.227 290.486 571.62 291.146C571.012 291.807 570.251 292.34 569.334 292.744C568.429 293.149 567.358 293.352 566.122 293.352ZM568.839 287.263C569.787 287.263 570.597 286.997 571.268 286.464C571.939 285.921 572.456 285.159 572.818 284.179C573.18 283.199 573.361 282.048 573.361 280.727C573.361 279.385 573.18 278.229 572.818 277.26C572.466 276.29 571.95 275.544 571.268 275.022C570.597 274.5 569.787 274.239 568.839 274.239C567.87 274.239 567.049 274.506 566.378 275.038C565.707 275.571 565.195 276.322 564.844 277.292C564.503 278.261 564.333 279.406 564.333 280.727C564.333 282.048 564.508 283.199 564.86 284.179C565.211 285.159 565.718 285.921 566.378 286.464C567.049 286.997 567.87 287.263 568.839 287.263Z" fill="black"/>
</svg>
