<svg width="224" height="356" viewBox="0 0 224 356" fill="none" xmlns="http://www.w3.org/2000/svg">
<g filter="url(#filter0_d_549_288)">
<rect x="4" width="216" height="348" fill="#FFD732"/>
</g>
<path d="M95.5462 156.273V189H87.652V163.656H87.4602L80.1413 168.13V161.29L88.2113 156.273H95.5462ZM124.274 171.949L117.099 172.141C117.025 171.63 116.822 171.177 116.492 170.783C116.162 170.378 115.73 170.064 115.198 169.84C114.676 169.605 114.068 169.488 113.376 169.488C112.47 169.488 111.698 169.669 111.059 170.032C110.43 170.394 110.121 170.884 110.132 171.502C110.121 171.981 110.313 172.397 110.707 172.748C111.112 173.1 111.831 173.382 112.865 173.595L117.595 174.49C120.045 174.959 121.867 175.737 123.06 176.823C124.264 177.91 124.871 179.348 124.882 181.138C124.871 182.821 124.37 184.286 123.38 185.532C122.399 186.779 121.057 187.748 119.353 188.441C117.648 189.123 115.698 189.463 113.504 189.463C109.999 189.463 107.234 188.744 105.21 187.306C103.197 185.857 102.046 183.918 101.758 181.489L109.477 181.298C109.647 182.192 110.089 182.874 110.803 183.343C111.517 183.812 112.428 184.046 113.536 184.046C114.537 184.046 115.352 183.86 115.981 183.487C116.609 183.114 116.929 182.619 116.94 182.001C116.929 181.447 116.684 181.005 116.204 180.674C115.725 180.333 114.974 180.067 113.951 179.875L109.669 179.06C107.208 178.613 105.375 177.787 104.171 176.583C102.968 175.369 102.371 173.824 102.382 171.949C102.371 170.309 102.808 168.908 103.692 167.746C104.576 166.575 105.833 165.68 107.463 165.062C109.093 164.444 111.016 164.135 113.232 164.135C116.556 164.135 119.177 164.833 121.094 166.228C123.012 167.613 124.072 169.52 124.274 171.949ZM142.584 164.455V170.207H127.099V164.455H142.584ZM130.343 158.574H138.157V181.282C138.157 181.761 138.232 182.15 138.381 182.448C138.541 182.736 138.77 182.944 139.068 183.071C139.366 183.189 139.723 183.247 140.139 183.247C140.437 183.247 140.751 183.221 141.081 183.167C141.422 183.103 141.678 183.05 141.849 183.007L143.031 188.648C142.658 188.755 142.131 188.888 141.449 189.048C140.778 189.208 139.974 189.309 139.036 189.352C137.204 189.437 135.632 189.224 134.322 188.712C133.022 188.19 132.026 187.381 131.334 186.283C130.652 185.186 130.322 183.806 130.343 182.145V158.574Z" fill="black"/>
<defs>
<filter id="filter0_d_549_288" x="0" y="0" width="224" height="356" filterUnits="userSpaceOnUse" color-interpolation-filters="sRGB">
<feFlood flood-opacity="0" result="BackgroundImageFix"/>
<feColorMatrix in="SourceAlpha" type="matrix" values="0 0 0 0 0 0 0 0 0 0 0 0 0 0 0 0 0 0 127 0" result="hardAlpha"/>
<feOffset dy="4"/>
<feGaussianBlur stdDeviation="2"/>
<feComposite in2="hardAlpha" operator="out"/>
<feColorMatrix type="matrix" values="0 0 0 0 0 0 0 0 0 0 0 0 0 0 0 0 0 0 0.25 0"/>
<feBlend mode="normal" in2="BackgroundImageFix" result="effect1_dropShadow_549_288"/>
<feBlend mode="normal" in="SourceGraphic" in2="effect1_dropShadow_549_288" result="shape"/>
</filter>
</defs>
</svg>
