<svg width="217" height="249" viewBox="0 0 217 249" fill="none" xmlns="http://www.w3.org/2000/svg">
<rect x="4" y="60" width="209" height="181" fill="#D9D9D9"/>
<g filter="url(#filter0_d_549_289)">
<rect x="4" width="209" height="241" fill="#EB5050"/>
</g>
<path d="M67.413 137V131.311L79.3501 120.86C80.245 120.05 81.0067 119.31 81.6353 118.639C82.2638 117.957 82.7433 117.275 83.0735 116.593C83.4038 115.901 83.5689 115.15 83.5689 114.34C83.5689 113.435 83.3718 112.662 82.9776 112.023C82.5835 111.373 82.0401 110.873 81.3477 110.521C80.6552 110.169 79.8615 109.994 78.9666 109.994C78.0611 109.994 77.2674 110.18 76.5856 110.553C75.9038 110.915 75.3711 111.442 74.9876 112.135C74.6147 112.827 74.4283 113.669 74.4283 114.66H66.9336C66.9336 112.433 67.4343 110.51 68.4357 108.891C69.4371 107.272 70.8434 106.025 72.6545 105.152C74.4762 104.267 76.5909 103.825 78.9986 103.825C81.4808 103.825 83.6381 104.241 85.4705 105.072C87.3029 105.903 88.7198 107.064 89.7212 108.555C90.7333 110.036 91.2393 111.757 91.2393 113.717C91.2393 114.963 90.989 116.199 90.4883 117.424C89.9876 118.65 89.0874 120.002 87.7876 121.483C86.4986 122.964 84.6662 124.738 82.2905 126.805L78.3754 130.416V130.624H91.6388V137H67.413ZM103.987 123.001V137H96.1732V112.455H103.604V116.961H103.876C104.419 115.459 105.346 114.282 106.656 113.429C107.967 112.566 109.527 112.135 111.338 112.135C113.064 112.135 114.561 112.524 115.829 113.301C117.107 114.069 118.098 115.145 118.801 116.529C119.515 117.904 119.866 119.512 119.856 121.355V137H112.041V122.89C112.052 121.526 111.706 120.461 111.003 119.694C110.31 118.926 109.346 118.543 108.11 118.543C107.29 118.543 106.566 118.724 105.937 119.086C105.319 119.438 104.84 119.944 104.499 120.604C104.169 121.265 103.998 122.064 103.987 123.001ZM133.659 137.352C131.847 137.352 130.202 136.883 128.721 135.945C127.24 135.008 126.057 133.602 125.173 131.727C124.289 129.852 123.847 127.524 123.847 124.743C123.847 121.856 124.305 119.48 125.221 117.616C126.137 115.752 127.336 114.372 128.817 113.477C130.308 112.582 131.911 112.135 133.627 112.135C134.916 112.135 136.018 112.359 136.934 112.806C137.851 113.243 138.607 113.808 139.204 114.5C139.8 115.192 140.253 115.912 140.562 116.657H140.722V104.273H148.536V137H140.802V133.021H140.562C140.232 133.777 139.763 134.486 139.156 135.146C138.548 135.807 137.787 136.339 136.871 136.744C135.965 137.149 134.894 137.352 133.659 137.352ZM136.375 131.263C137.323 131.263 138.133 130.997 138.804 130.464C139.475 129.921 139.992 129.159 140.354 128.179C140.716 127.199 140.898 126.048 140.898 124.727C140.898 123.385 140.716 122.229 140.354 121.26C140.003 120.29 139.486 119.544 138.804 119.022C138.133 118.5 137.323 118.239 136.375 118.239C135.406 118.239 134.585 118.506 133.914 119.038C133.243 119.571 132.732 120.322 132.38 121.292C132.039 122.261 131.869 123.406 131.869 124.727C131.869 126.048 132.045 127.199 132.396 128.179C132.748 129.159 133.254 129.921 133.914 130.464C134.585 130.997 135.406 131.263 136.375 131.263Z" fill="white"/>
<defs>
<filter id="filter0_d_549_289" x="0" y="0" width="217" height="249" filterUnits="userSpaceOnUse" color-interpolation-filters="sRGB">
<feFlood flood-opacity="0" result="BackgroundImageFix"/>
<feColorMatrix in="SourceAlpha" type="matrix" values="0 0 0 0 0 0 0 0 0 0 0 0 0 0 0 0 0 0 127 0" result="hardAlpha"/>
<feOffset dy="4"/>
<feGaussianBlur stdDeviation="2"/>
<feComposite in2="hardAlpha" operator="out"/>
<feColorMatrix type="matrix" values="0 0 0 0 0 0 0 0 0 0 0 0 0 0 0 0 0 0 0.25 0"/>
<feBlend mode="normal" in2="BackgroundImageFix" result="effect1_dropShadow_549_289"/>
<feBlend mode="normal" in="SourceGraphic" in2="effect1_dropShadow_549_289" result="shape"/>
</filter>
</defs>
</svg>
