<svg width="217" height="189" viewBox="0 0 217 189" fill="none" xmlns="http://www.w3.org/2000/svg">
<g filter="url(#filter0_d_549_290)">
<rect x="4" width="209" height="181" fill="#B4E5FF"/>
</g>
<path d="M84.8615 106.447C82.3686 106.447 80.158 106.021 78.2298 105.169C76.3121 104.306 74.7994 103.118 73.6914 101.605C72.5835 100.093 72.0188 98.3509 71.9975 96.38H79.9556C79.9876 97.0937 80.2166 97.7276 80.6428 98.2816C81.0689 98.8249 81.6495 99.2511 82.3846 99.56C83.1197 99.869 83.956 100.023 84.8935 100.023C85.831 100.023 86.6566 99.8583 87.3704 99.5281C88.0948 99.1871 88.6594 98.7237 89.0643 98.1378C89.4691 97.5412 89.6662 96.8594 89.6555 96.0923C89.6662 95.3253 89.4478 94.6435 89.0004 94.0469C88.5529 93.4503 87.919 92.9869 87.0987 92.6566C86.2891 92.3263 85.3303 92.1612 84.2223 92.1612H81.0423V86.5362H84.2223C85.1918 86.5362 86.044 86.3764 86.7791 86.0568C87.5249 85.7372 88.1055 85.2898 88.521 84.7145C88.9364 84.1286 89.1389 83.4574 89.1282 82.701C89.1389 81.9659 88.9631 81.3214 88.6009 80.7674C88.2493 80.2028 87.7539 79.766 87.1147 79.457C86.4862 79.1481 85.7564 78.9936 84.9254 78.9936C84.0518 78.9936 83.2582 79.1481 82.5444 79.457C81.8413 79.766 81.282 80.2028 80.8665 80.7674C80.451 81.332 80.2326 81.9872 80.2113 82.733H72.6527C72.674 80.7834 73.2173 79.0682 74.2827 77.5874C75.348 76.0959 76.7969 74.9293 78.6293 74.0877C80.4723 73.2461 82.571 72.8253 84.9254 72.8253C87.2692 72.8253 89.3306 73.2354 91.1097 74.0558C92.8889 74.8761 94.2738 75.9947 95.2646 77.4116C96.2553 78.8178 96.7507 80.4105 96.7507 82.1896C96.7614 84.0327 96.1594 85.5508 94.945 86.744C93.7411 87.9371 92.1911 88.6722 90.2947 88.9492V89.2049C92.8303 89.5032 94.7425 90.3235 96.0316 91.6658C97.3313 93.0082 97.9759 94.6861 97.9652 96.6996C97.9652 98.5959 97.4059 100.279 96.2873 101.749C95.1793 103.209 93.6346 104.359 91.6531 105.201C89.6822 106.032 87.4183 106.447 84.8615 106.447ZM102.492 106V81.4545H110.082V85.929H110.338C110.785 84.3097 111.515 83.1058 112.527 82.3175C113.539 81.5185 114.716 81.119 116.059 81.119C116.421 81.119 116.794 81.1456 117.177 81.1989C117.561 81.2415 117.918 81.3107 118.248 81.4066V88.1982C117.875 88.0703 117.385 87.9691 116.778 87.8945C116.181 87.82 115.649 87.7827 115.18 87.7827C114.253 87.7827 113.417 87.9904 112.671 88.4059C111.936 88.8107 111.355 89.3807 110.929 90.1158C110.514 90.8402 110.306 91.6925 110.306 92.6726V106H102.492ZM129.122 106.352C127.311 106.352 125.665 105.883 124.185 104.945C122.704 104.008 121.521 102.602 120.637 100.727C119.753 98.8516 119.311 96.5238 119.311 93.7433C119.311 90.8562 119.769 88.4805 120.685 86.6161C121.601 84.7518 122.8 83.3722 124.28 82.4773C125.772 81.5824 127.375 81.1349 129.09 81.1349C130.38 81.1349 131.482 81.3587 132.398 81.8061C133.315 82.2429 134.071 82.8075 134.668 83.5C135.264 84.1925 135.717 84.9116 136.026 85.6573H136.186V73.2727H144V106H136.266V102.021H136.026C135.696 102.777 135.227 103.486 134.62 104.146C134.012 104.807 133.251 105.339 132.334 105.744C131.429 106.149 130.358 106.352 129.122 106.352ZM131.839 100.263C132.787 100.263 133.597 99.9968 134.268 99.4641C134.939 98.9208 135.456 98.1591 135.818 97.179C136.18 96.1989 136.361 95.0483 136.361 93.7273C136.361 92.3849 136.18 91.229 135.818 90.2596C135.467 89.2901 134.95 88.5444 134.268 88.0224C133.597 87.5004 132.787 87.2393 131.839 87.2393C130.87 87.2393 130.049 87.5057 129.378 88.0384C128.707 88.571 128.196 89.3221 127.844 90.2915C127.503 91.261 127.333 92.4062 127.333 93.7273C127.333 95.0483 127.508 96.1989 127.86 97.179C128.212 98.1591 128.718 98.9208 129.378 99.4641C130.049 99.9968 130.87 100.263 131.839 100.263Z" fill="black"/>
<defs>
<filter id="filter0_d_549_290" x="0" y="0" width="217" height="189" filterUnits="userSpaceOnUse" color-interpolation-filters="sRGB">
<feFlood flood-opacity="0" result="BackgroundImageFix"/>
<feColorMatrix in="SourceAlpha" type="matrix" values="0 0 0 0 0 0 0 0 0 0 0 0 0 0 0 0 0 0 127 0" result="hardAlpha"/>
<feOffset dy="4"/>
<feGaussianBlur stdDeviation="2"/>
<feComposite in2="hardAlpha" operator="out"/>
<feColorMatrix type="matrix" values="0 0 0 0 0 0 0 0 0 0 0 0 0 0 0 0 0 0 0.25 0"/>
<feBlend mode="normal" in2="BackgroundImageFix" result="effect1_dropShadow_549_290"/>
<feBlend mode="normal" in="SourceGraphic" in2="effect1_dropShadow_549_290" result="shape"/>
</filter>
</defs>
</svg>
